<svg xmlns="http://www.w3.org/2000/svg" width="26" height="26" viewBox="0 0 26 26">
    <path fill="#ffffff" d="M 13.5 0.125 C 13.342 0.125 13.1755 0.15175 13.0625 0.21875 L 2.1875 4.0625 C 1.7095 4.3075 1.7095 4.6725 2.1875 4.9375 L 13.0625 9.4375 C 13.1885 9.5295 13.7805 9.5445 13.9375 9.4375 L 24.8125 4.9375 C 25.2315 4.7305 25.2105 4.3075 24.8125 4.0625 L 13.9375 0.21875 C 13.8055 0.15175 13.658 0.125 13.5 0.125 z M 13.4375 3.46875 C 13.969 3.46525 14.48 3.5415 14.875 3.6875 C 15.526 3.9285 15.623 4.2555 15.625 4.4375 C 15.627 4.6165 15.5655 4.9425 14.9375 5.1875 C 14.5345 5.3475 13.97425 5.4375 13.40625 5.4375 C 12.86125 5.4375 12.35975 5.36775 11.96875 5.21875 C 11.33975 4.97875 11.25 4.64775 11.25 4.46875 C 11.25 4.28775 11.33075 3.9335 11.96875 3.6875 C 12.36075 3.5365 12.906 3.47225 13.4375 3.46875 z M 1.40625 6.125 C 1.1671875 6.1059219 1 6.24275 1 6.5 L 1 19.15625 C 1 19.49925 1.28825 19.91875 1.65625 20.09375 L 12.34375 25.8125 C 12.71375 25.9865 13 25.845 13 25.5 L 13 11.625 C 13 11.283 12.71375 10.8615 12.34375 10.6875 L 1.65625 6.1875 C 1.56425 6.144 1.4859375 6.1313594 1.40625 6.125 z M 25.59375 6.125 C 25.514062 6.1313594 25.43575 6.144 25.34375 6.1875 L 14.65625 10.6875 C 14.28625 10.8615 14 11.283 14 11.625 L 14 25.5 C 14 25.845 14.28625 25.9865 14.65625 25.8125 L 25.34375 20.09375 C 25.71175 19.91875 26 19.49925 26 19.15625 L 26 6.5 C 26 6.24275 25.832813 6.1059219 25.59375 6.125 z M 9.625 11 C 9.813 11 10.02175 11.07025 10.21875 11.15625 C 11.10075 11.54025 11.78125 12.62925 11.78125 13.65625 C 11.78225 14.05925 11.67275 14.40625 11.46875 14.65625 C 11.25975 14.91225 10.962 15.0625 10.625 15.0625 C 10.425 15.0625 10.24125 15.00225 10.03125 14.90625 C 9.16925 14.50625 8.46875 13.40925 8.46875 12.40625 C 8.46875 11.58825 8.943 11 9.625 11 z M 18.75 12.125 C 19.423 12.125 19.875 12.687 19.875 13.5 C 19.875 14.491 19.217 15.56775 18.375 15.96875 C 18.164 16.06975 17.951 16.125 17.75 16.125 C 17.079 16.125 16.625 15.564 16.625 14.75 C 16.625 13.737 17.29625 12.637 18.15625 12.25 C 18.35525 12.16 18.56 12.125 18.75 12.125 z M 6.21875 13.53125 C 6.40675 13.53125 6.6135 13.5945 6.8125 13.6875 C 7.6475 14.0775 8.3125 15.15625 8.3125 16.15625 C 8.3125 16.54225 8.189 16.885 8 17.125 C 7.804 17.373 7.53875 17.5 7.21875 17.5 C 7.01875 17.5 6.80275 17.44575 6.59375 17.34375 C 5.77575 16.94175 5.125 15.853 5.125 14.875 C 5.125 14.071 5.56475 13.53125 6.21875 13.53125 z M 22.71875 15.03125 C 23.34775 15.03125 23.78125 15.56175 23.78125 16.34375 C 23.78225 17.30375 23.13375 18.37625 22.34375 18.78125 C 22.13375 18.88925 21.95 18.9375 21.75 18.9375 C 21.125 18.9365 20.6875 18.43825 20.6875 17.65625 C 20.6875 16.67725 21.317 15.5825 22.125 15.1875 C 22.323 15.0905 22.53075 15.03125 22.71875 15.03125 z M 3 15.9375 C 3.187 15.9375 3.3675 15.99675 3.5625 16.09375 C 4.3565 16.48875 4.96875 17.55825 4.96875 18.53125 C 4.96875 18.90425 4.89575 19.23875 4.71875 19.46875 C 4.53175 19.71075 4.2425 19.84375 3.9375 19.84375 C 3.7395 19.84375 3.55175 19.76425 3.34375 19.65625 C 2.56975 19.25225 1.96875 18.204 1.96875 17.25 C 1.96875 16.473 2.383 15.9375 3 15.9375 z"></path>
</svg>